<?xml version="1.0" encoding="utf-8"?>
<!-- Generator: Adobe Illustrator 16.0.0, SVG Export Plug-In . SVG Version: 6.00 Build 0)  -->
<!DOCTYPE svg PUBLIC "-//W3C//DTD SVG 1.1//EN" "http://www.w3.org/Graphics/SVG/1.1/DTD/svg11.dtd">
<svg height="512" width="512" version="1.1" id="Layer_1" xmlns="http://www.w3.org/2000/svg" xmlns:xlink="http://www.w3.org/1999/xlink" x="0px" y="0px"
	   viewBox="-128 -128 512 512" enable-background="new -128 -128 512 512" xml:space="preserve">
<g>
	<circle fill="#A4D66E" cx="128" cy="128.977" r="256"/>
	<g>
		<rect x="-60" y="156.977" fill="#31424C" width="376" height="52"/>
		<path fill="#66B0DD" d="M8,40.977c-8,0-36,68-36,68v0.446c0,0-32,11.554-32,19.554v7.999h8c2.208,0,4,1.793,4,4v16
			c0,2.209-1.792,4-4,4h-8v48h12c0-22.09,17.908-40,40-40c22.092,0,40,17.91,40,40h52v-48v-120C84,40.977,28,40.977,8,40.977z"/>
		<path fill="#F4F4F4" d="M12,48.977h64v60h-96C-20,108.977,4,48.977,12,48.977z"/>
		<path fill="#F25E37" d="M308,180.977v4c0,2.209,1.793,4,4,4h4v-12h-4C309.793,176.977,308,178.768,308,180.977z"/>
		<path fill="#F97450" d="M308,167.645v2.664c0,1.473,1.793,2.668,4,2.668h4v-8h-4C309.793,164.977,308,166.172,308,167.645z"/>
		<path fill="#F4F4F4" d="M-48,140.977c0-2.207-1.792-4-4-4h-8v12h12V140.977z"/>
		<path fill="#D8D8D8" d="M-60,148.977v12h8c2.208,0,4-1.791,4-4v-8H-60z"/>
		<path fill="#D8D8D8" d="M52,124.978h16c2.208,0,4-1.792,4-4H48C48,123.186,49.792,124.978,52,124.978z"/>
		<path fill="#F4F4F4" d="M68,116.977H52c-2.208,0-4,1.792-4,4h24C72,118.767,70.21,116.977,68,116.977z"/>
		<path fill="#F1BC3A" d="M312,164.977h4v-8H84v52h96c0-22.09,17.908-40,40-40s40,17.91,40,40h56v-20h-4c-2.207,0-4-1.791-4-4v-4
			c0-2.207,1.793-4,4-4h4v-4h-4c-2.207,0-4-1.195-4-2.668v-2.664C308,166.172,309.793,164.977,312,164.977z"/>
		<rect x="84" y="48.977" fill="#F9C953" width="232" height="108"/>
		<g>
			<circle fill="#59666F" cx="-8" cy="208.977" r="32"/>
			<path fill="#4B5A64" d="M20,208.977c0-15.465-12.534-28-28-28c-15.467,0-28,12.535-28,28c0,15.459,12.533,28,28,28
				C7.466,236.977,20,224.434,20,208.977z"/>
			<circle fill="#F4F4F4" cx="-8" cy="208.977" r="20"/>
			<circle fill="#D8D8D8" cx="-8" cy="208.977" r="8"/>
		</g>
		<g>
			<circle fill="#59666F" cx="220" cy="208.977" r="32"/>
			<path fill="#4B5A64" d="M248,208.977c0-15.465-12.535-28-28-28c-15.467,0-28,12.535-28,28c0,15.459,12.533,28,28,28
				C235.465,236.977,248,224.434,248,208.977z"/>
			<circle fill="#F4F4F4" cx="220" cy="208.977" r="20"/>
			<circle fill="#D8D8D8" cx="220" cy="208.977" r="8"/>
		</g>
		<g>
			<path fill="#4B5A64" d="M-44.648,192.977H-68c-2.208,0-4,1.793-4,4v4h24.802C-46.631,198.191-45.762,195.52-44.648,192.977z"/>
			<path fill="#3E4F59" d="M-72,200.977v4c0,2.209,1.792,4,4,4h20c0-2.738,0.277-5.414,0.802-8H-72z"/>
			<path fill="#4B5A64" d="M183.352,192.977H28.648c1.114,2.543,1.982,5.215,2.548,8h149.605
				C181.369,198.191,182.238,195.52,183.352,192.977z"/>
			<path fill="#4B5A64" d="M324,192.977h-67.352c1.113,2.543,1.98,5.215,2.547,8h68.803v-4C328,194.768,326.211,192.977,324,192.977
				z"/>
			<path fill="#3E4F59" d="M260,208.977h64c2.207,0,4-1.791,4-4v-4h-68.803C259.723,203.563,260,206.234,260,208.977z"/>
			<path fill="#3E4F59" d="M31.198,200.977c0.526,2.586,0.803,5.262,0.803,8h148c0-2.738,0.277-5.414,0.801-8H31.198z"/>
		</g>
		<path fill="#3E4F59" d="M-16,100.977v24c2.208,0,4-1.792,4-4v-16C-12,102.767-13.79,100.977-16,100.977z"/>
		<path fill="#4B5A64" d="M-20,104.977v16c0,2.208,1.792,4,4,4v-24C-18.208,100.977-20,102.767-20,104.977z"/>
		<rect x="216" y="16.977" fill="#F4F4F4" width="18" height="16"/>
		<rect x="216" y="32.977" fill="#D8D8D8" width="18" height="16"/>
		<rect x="166" y="32.977" fill="#D8D8D8" width="18" height="16"/>
		<rect x="166" y="16.977" fill="#F4F4F4" width="18" height="16"/>
		<rect x="116" y="16.977" fill="#F4F4F4" width="18" height="16"/>
		<rect x="116" y="32.977" fill="#D8D8D8" width="18" height="16"/>
		<rect x="266" y="32.977" fill="#D8D8D8" width="18" height="16"/>
		<rect x="266" y="16.977" fill="#F4F4F4" width="18" height="16"/>
		<path fill="#F97450" d="M116,16.977h-16c-8.836,0-16,7.164-16,16h32V16.977z"/>
		<rect x="84" y="32.977" fill="#F25E37" width="32" height="16"/>
		<rect x="284" y="32.977" fill="#F25E37" width="32" height="16"/>
		<path fill="#F97450" d="M300,16.977h-16v16h32C316,24.141,308.836,16.977,300,16.977z"/>
		<rect x="234" y="16.977" fill="#F97450" width="32" height="16"/>
		<rect x="234" y="32.977" fill="#F25E37" width="32" height="16"/>
		<rect x="184" y="16.977" fill="#F97450" width="32" height="16"/>
		<rect x="184" y="32.977" fill="#F25E37" width="32" height="16"/>
		<rect x="134" y="16.977" fill="#F97450" width="32" height="16"/>
		<rect x="134" y="32.977" fill="#F25E37" width="32" height="16"/>
		<g>
			<path fill="#D8D8D8" d="M228.529,103.257c0,1.05-0.045,2.094-0.131,3.126h7.945c0-16.057-10.531-29.652-25.064-34.263
				C221.637,78.613,228.529,90.13,228.529,103.257z"/>
			<path fill="#F4F4F4" d="M164.469,106.383h63.93c0.086-1.032,0.131-2.074,0.131-3.126c0-13.127-6.893-24.645-17.252-31.137
				c-3.43-1.086-7.082-1.676-10.875-1.676C180.555,70.445,164.469,86.535,164.469,106.383z"/>
			<g>
				<path fill="#FFFFFF" d="M180.092,81.383c-0.201,0-0.4-0.074-0.553-0.229c-0.305-0.304-0.305-0.8,0-1.106
					c0.133-0.129,3.313-3.275,8.119-4.875c0.408-0.133,0.854,0.086,0.99,0.494c0.133,0.411-0.086,0.854-0.494,0.989
					c-4.461,1.484-7.479,4.468-7.51,4.498C180.492,81.309,180.293,81.383,180.092,81.383z"/>
			</g>
			<rect x="198.842" y="68.101" fill="#3E4F59" width="3.127" height="2.344"/>
			<path fill="#4B5A64" d="M203.529,67.319c0,0.431-0.35,0.782-0.781,0.782h-4.689c-0.43,0-0.781-0.352-0.781-0.782v-1.562
				c0-0.431,0.352-0.782,0.781-0.782h4.689c0.432,0,0.781,0.352,0.781,0.782V67.319z"/>
			<path fill="#966A4D" d="M239.469,107.163c0-0.43-0.352-0.782-0.783-0.782h-76.563c-0.432,0-0.781,0.353-0.781,0.782v0.782h78.127
				V107.163z"/>
			<path fill="#855739" d="M161.342,107.945v0.782c0,0.434,0.35,0.782,0.783,0.782h76.561c0.432,0,0.783-0.349,0.783-0.782v-0.782
				H161.342z"/>
		</g>
		<g>
			<path fill="#4B5A64" d="M148.809,125.313c1.344-0.214,3.094-0.336,4.941-0.336c3.07,0,5.063,0.55,6.621,1.726
				c1.68,1.248,2.734,3.238,2.734,6.094c0,3.094-1.129,5.229-2.688,6.547c-1.703,1.416-4.293,2.088-7.461,2.088
				c-1.895,0-3.234-0.119-4.148-0.24V125.313L148.809,125.313z M152.477,138.504c0.313,0.074,0.816,0.074,1.273,0.074
				c3.309,0.023,5.469-1.801,5.469-5.662c0.023-3.358-1.943-5.133-5.086-5.133c-0.816,0-1.344,0.072-1.656,0.143V138.504z"/>
			<path fill="#4B5A64" d="M175.133,134.428h-5.949v3.838h6.645v2.998h-10.316v-16.166h9.98v2.996h-6.309v3.359h5.949V134.428z"/>
			<path fill="#4B5A64" d="M178.328,125.098H182v13.096h6.428v3.07h-10.1V125.098z"/>
			<path fill="#4B5A64" d="M194.262,125.098v16.166h-3.668v-16.166H194.262z"/>
			<path fill="#4B5A64" d="M201.246,141.264l-5.18-16.166h4.004l1.967,6.836c0.551,1.918,1.055,3.766,1.439,5.781h0.074
				c0.404-1.945,0.91-3.863,1.459-5.709l2.063-6.906h3.885l-5.445,16.166h-4.266V141.264z"/>
			<path fill="#4B5A64" d="M222.316,134.428h-5.951v3.838h6.645v2.998h-10.316v-16.166h9.98v2.996h-6.309v3.359h5.951V134.428z"/>
			<path fill="#4B5A64" d="M225.512,125.313c1.176-0.192,2.926-0.336,4.871-0.336c2.398,0,4.078,0.36,5.227,1.272
				c0.961,0.768,1.488,1.894,1.488,3.379c0,2.064-1.461,3.48-2.855,3.984v0.07c1.127,0.457,1.752,1.535,2.16,3.023
				c0.504,1.822,1.008,3.934,1.316,4.557h-3.738c-0.266-0.455-0.648-1.775-1.129-3.766c-0.432-2.018-1.125-2.566-2.613-2.592h-1.105
				v6.357h-3.623v-15.95H225.512z M229.133,132.27h1.443c1.822,0,2.9-0.912,2.9-2.328c0-1.486-1.008-2.23-2.688-2.254
				c-0.885,0-1.391,0.07-1.656,0.12V132.27z"/>
			<path fill="#4B5A64" d="M243.029,141.264v-6.619l-5.109-9.547h4.174l1.656,3.884c0.504,1.175,0.838,2.04,1.246,3.097h0.047
				c0.361-1.008,0.744-1.947,1.223-3.097l1.629-3.884h4.104l-5.324,9.426v6.74H243.029z"/>
		</g>
		<polygon fill="#FFFFFF" points="28,48.977 4,108.977 16,108.977 40,48.977 		"/>
		<polyline fill="#FFFFFF" points="44,48.977 20,108.977 24,108.977 48,48.977 		"/>
		<g>
			<path fill="#50A4D5" d="M78,110.977H-22.952l1.096-2.742c7.37-18.418,25.417-61.258,33.859-61.258h66v64H78z M-17.038,106.977
				h91.041v-56h-62C7.734,51.757-6.136,80.128-17.038,106.977z"/>
		</g>
	</g>
</g>
</svg>
